PathFileType	4	(X/Y/Z)	C:/Users/opensim2020/Desktop/walking_exp_matlab/subject01_walking08_straight_02.trc	
DataRate	CameraRate	NumFrames	NumMarkers	Units	OrigDataRate	OrigDataStartFrame	OrigNumFrames	
100.00	100.00	6	43	mm	100.00	1884	311	
Frame#	Time	LFHD			RFHD			LBHD			RBHD			C7			T10			CLAV			STRN			RBAK			LSHO			LUPA			LELB			LFRM			LWRA			LWRB			LFIN			RSHO			RUPA			RELB			RFRM			RWRA			RWRB			RFIN			LASI			RASI			LPSI			RPSI			LTHI			LKNE			LTIB			LANK			LHEE			LTOE			RTHI			RKNE			RTIB			RANK			RHEE			RTOE			*39			*40			*41			*42			
		X1	Y1	Z1	X2	Y2	Z2	X3	Y3	Z3	X4	Y4	Z4	X5	Y5	Z5	X6	Y6	Z6	X7	Y7	Z7	X8	Y8	Z8	X9	Y9	Z9	X10	Y10	Z10	X11	Y11	Z11	X12	Y12	Z12	X13	Y13	Z13	X14	Y14	Z14	X15	Y15	Z15	X16	Y16	Z16	X17	Y17	Z17	X18	Y18	Z18	X19	Y19	Z19	X20	Y20	Z20	X21	Y21	Z21	X22	Y22	Z22	X23	Y23	Z23	X24	Y24	Z24	X25	Y25	Z25	X26	Y26	Z26	X27	Y27	Z27	X28	Y28	Z28	X29	Y29	Z29	X30	Y30	Z30	X31	Y31	Z31	X32	Y32	Z32	X33	Y33	Z33	X34	Y34	Z34	X35	Y35	Z35	X36	Y36	Z36	X37	Y37	Z37	X38	Y38	Z38	X39	Y39	Z39	X40	Y40	Z40	X41	Y41	Z41	X42	Y42	Z42	X43	Y43	Z43	

78	0.770	1478.96826	854.41412	1670.59741	1368.18872	831.40088	1682.85022	1457.86853	958.36859	1604.74609	1340.40222	938.11926	1616.29529	1415.64246	968.23517	1424.20007	1400.56055	990.06708	1129.73975	1417.53320	823.24506	1361.63245	1425.89624	773.62146	1207.82227	1338.66699	1011.52087	1225.51160	1577.60315	886.29126	1387.51123	1664.04541	881.40430	1204.32739	1670.51880	853.23950	1053.86816	1690.84448	770.50293	972.44147	1664.42664	650.24152	906.49255	1691.83667	694.77087	876.47931	1699.22766	619.31714	840.17084	1263.90576	883.83826	1385.22681	1167.93311	947.60718	1183.79248	1169.56592	951.22821	1059.13196	1139.48999	931.78857	940.17493	1157.55786	857.23254	819.83521	1119.91357	903.52435	822.35095	1123.22058	869.73291	742.89899	1521.82031	828.50171	923.86713	1306.92639	797.99390	933.94812	1440.74194	1005.39496	936.69611	1297.37915	983.98303	939.33435	1560.63416	920.60400	595.45544	1542.75183	960.15521	464.47144	1546.08142	1072.60620	310.19611	1490.54077	1173.82019	113.00169	1435.67078	1223.94324	101.01843	1492.50024	1044.58630	37.62202	1237.65234	787.17853	607.53485	1268.35803	739.17505	459.84796	1256.02979	746.13489	285.07602	1296.16711	720.73724	79.84376	1344.33862	764.37616	35.27259	1300.91455	579.04999	55.55507	1389.55420	852.16931	1712.88538	-3101.98633	1973.06665	1023.32758	-3140.70435	2012.61707	1022.24573			 
79	0.780	1477.27319	847.17920	1670.88806	1366.60938	823.95135	1683.21204	1456.15759	951.18372	1605.21521	1338.53369	930.62488	1616.67896	1414.04651	960.61047	1424.43408	1399.27612	981.65137	1129.67529	1415.95972	815.71594	1362.17310	1424.27991	765.79816	1208.37805	1337.10571	1003.72662	1225.52588	1576.10364	878.77350	1387.83008	1662.10645	874.33295	1204.46277	1668.64880	846.45142	1053.95825	1689.02869	764.21338	972.00586	1662.85449	644.59821	905.01221	1690.21692	689.40442	875.39783	1697.85120	614.34082	838.63245	1262.18823	876.39655	1385.15503	1166.41467	939.51892	1183.41187	1168.12451	942.81421	1058.66101	1138.18213	923.08887	939.73499	1156.34595	848.24652	819.63409	1118.74329	894.08105	821.84460	1122.03271	860.43280	742.70764	1520.41272	819.42682	923.69147	1305.57117	789.13641	934.26630	1439.54968	996.35950	936.83020	1296.12280	975.08020	940.18414	1559.37012	911.51398	595.27557	1542.03296	951.51544	464.44656	1545.67773	1066.41357	311.88608	1491.12048	1171.26599	116.47552	1436.37744	1221.66711	105.62976	1492.55396	1044.29456	37.64897	1236.31360	779.76367	607.99469	1267.09229	731.56805	460.15744	1254.26794	739.71515	285.30719	1295.60620	719.30267	79.45679	1343.70117	763.55371	35.90376	1300.72205	578.01892	51.64194	1387.90735	844.67163	1713.34680	-3101.96680	1973.12854	1023.38940	-3140.63232	2012.54883	1022.09320			 
80	0.790	1475.65979	839.98474	1671.23413	1364.96387	816.64044	1683.61804	1454.38318	943.95905	1605.60815	1336.82935	923.21368	1617.01465	1412.47571	953.12811	1424.62109	1398.11548	973.33875	1129.70642	1414.36389	808.09253	1362.64575	1422.78076	757.67053	1209.08838	1335.63062	995.87732	1225.52930	1574.51245	871.11499	1388.30261	1660.06091	867.23999	1204.67859	1666.73474	839.83679	1054.19653	1687.14587	758.39795	971.54163	1661.21521	639.27252	903.52155	1688.37463	684.37311	874.23248	1696.42004	609.70911	836.90869	1260.73694	869.16132	1385.32263	1164.97559	931.36243	1183.19177	1166.75964	934.26453	1058.48352	1136.74792	914.04425	939.52838	1155.02380	839.14240	819.74048	1117.53650	885.22333	822.01343	1120.61963	851.16241	742.74469	1518.73145	810.09460	923.45294	1304.02515	780.41962	934.75952	1438.57800	987.24359	937.18896	1295.09521	966.25970	941.33917	1558.14417	902.11914	595.11353	1541.45862	942.48889	464.53738	1545.67444	1060.07666	314.06668	1491.75037	1168.35046	120.10852	1437.23035	1219.06824	110.70981	1492.57520	1043.91382	37.76740	1235.48145	771.13812	609.09821	1265.70911	724.39099	460.09360	1253.03564	734.81476	284.99020	1294.85474	717.39838	78.81023	1343.18652	762.84338	36.48779	1300.20691	577.18170	48.45722	1386.26978	837.22296	1713.72461	-3101.81445	1973.17249	1023.49811	-3140.69531	2012.58459	1022.06079			 
81	0.800	1473.96558	832.76636	1671.57520	1363.34692	809.27460	1683.95959	1452.58533	936.68384	1605.91772	1335.00378	915.78632	1617.39233	1410.96790	945.80573	1424.79419	1396.89392	965.19434	1129.84192	1412.68066	800.52429	1363.17261	1421.24731	749.70709	1209.85193	1334.34033	988.01099	1225.59937	1572.87500	863.38959	1388.85950	1658.20313	860.19464	1205.05969	1664.82605	833.37970	1054.58337	1685.36401	752.69928	971.31842	1659.57336	634.16968	902.06049	1686.64417	679.64667	873.19482	1694.93604	605.40057	835.19293	1259.16370	861.85577	1385.60510	1163.57910	923.22681	1183.18909	1165.42847	925.65210	1058.53064	1135.37720	905.09576	939.68927	1153.70032	829.87378	819.99939	1116.08801	875.84613	822.15717	1119.20508	841.76801	743.11761	1517.00916	800.61273	923.44958	1302.33350	771.69794	935.44830	1437.70325	978.13019	937.83411	1294.24255	957.43890	942.64398	1556.97839	892.40082	595.04578	1541.00476	932.95789	464.68768	1545.37036	1053.12842	316.06195	1492.70874	1165.31116	124.42338	1437.94287	1215.81738	116.04362	1492.60168	1043.40637	37.94876	1234.26038	761.87073	609.47626	1264.17114	717.41486	459.51385	1251.51550	730.87732	284.10422	1294.27722	716.24860	78.79523	1342.71216	762.20129	37.02190	1299.81323	576.29047	46.24209	1384.59912	829.93164	1714.14807	-3102.06226	1972.94019	1023.91321	-3140.58179	2012.56396	1022.11346			 
82	0.810	1472.38440	825.62335	1672.01111	1361.65808	802.02466	1684.32983	1450.83679	929.45068	1606.22717	1333.36780	908.49249	1617.67847	1409.53137	938.60077	1424.99927	1395.80969	957.15906	1130.02124	1411.18506	792.96619	1363.83203	1419.84363	741.74243	1210.68933	1333.10889	980.09088	1225.61121	1571.25330	855.68549	1389.46387	1656.39050	853.09406	1205.54163	1662.90991	827.06390	1055.00757	1683.35632	746.99286	970.94537	1657.99402	629.35309	900.55286	1685.34985	675.28925	872.34009	1693.26941	601.26453	833.28992	1257.64417	854.50293	1385.95313	1162.23303	915.00952	1183.29358	1163.79395	917.00684	1058.77002	1133.97852	896.15204	940.15417	1152.29102	820.66156	820.51740	1114.65173	866.47125	822.59674	1117.77490	832.27942	743.35498	1515.14905	791.21185	923.58929	1300.28577	763.09833	935.99292	1436.90942	968.97266	938.62689	1293.30334	948.73822	944.08197	1555.79626	882.44379	594.98828	1540.47290	922.81750	464.59723	1545.64844	1045.81311	318.49023	1493.52173	1161.62573	128.64915	1438.82922	1212.23755	121.84017	1492.58350	1043.04980	37.78292	1232.88403	752.64264	609.70306	1262.68579	710.93658	458.92059	1250.08557	727.14398	283.62344	1293.87756	715.09766	78.31275	1342.31775	761.78217	37.44726	1300.07727	575.34259	44.72591	1382.89465	822.70685	1714.42664	-3101.91675	1973.18262	1023.32568	-3140.71313	2012.58862	1022.08307			 
83	0.820	1470.70020	818.42462	1672.49414	1360.08240	794.73303	1684.75952	1449.19714	922.21710	1606.61365	1331.70007	901.20648	1617.98889	1408.15552	931.44275	1425.26648	1394.90588	949.09961	1130.22998	1409.59021	785.54492	1364.46790	1418.35925	733.87335	1211.62671	1332.05481	972.18451	1225.69604	1569.74646	848.17426	1390.11584	1654.74719	845.95026	1206.07678	1660.93958	820.91162	1055.38538	1681.72144	741.91827	970.60394	1656.41089	624.70197	898.95795	1683.53601	671.14001	871.16644	1691.68250	597.37994	831.39618	1256.13037	847.23840	1386.44031	1160.85547	906.92401	1183.53882	1162.38367	908.24377	1059.14111	1132.56458	887.07172	940.67480	1150.89941	811.31323	821.14111	1112.97021	857.06702	823.17041	1116.44897	822.68335	744.05457	1513.13049	781.81079	923.81494	1298.10583	754.64880	936.67004	1436.00342	959.88013	939.53601	1292.28027	940.10059	945.51050	1554.69348	872.16003	594.97333	1540.12512	912.22528	464.52118	1545.74524	1038.01294	320.84903	1494.44946	1157.60474	133.19249	1439.53577	1207.97156	127.85132	1492.61377	1042.56396	37.88726	1231.33630	743.73755	609.96399	1261.61255	704.77264	458.43039	1249.02454	723.06317	283.02356	1293.93982	713.71893	78.06171	1341.86963	761.40771	37.70684	1300.93079	574.34369	43.44238	1381.26074	815.56000	1714.81372	-3101.90698	1973.13379	1023.28925	-3140.81494	2012.50647	1022.01459			 
